Coordinates
version=1
nRows=14
nColumns=24
inDegrees=yes

Units are S.I. units (second, meters, Newtons, ...)
Angles are in degrees.

endheader
time	pelvis_tilt	pelvis_list	pelvis_rotation	pelvis_tx	pelvis_ty	pelvis_tz	hip_flexion_r	hip_adduction_r	hip_rotation_r	knee_angle_r	ankle_angle_r	subtalar_angle_r	mtp_angle_r	hip_flexion_l	hip_adduction_l	hip_rotation_l	knee_angle_l	ankle_angle_l	subtalar_angle_l	mtp_angle_l	lumbar_extension	lumbar_bending	lumbar_rotation
      1.18666667	      6.43768926	      3.06439476	      0.05834188	      0.21386161	      1.01221698	      0.29123694	     12.37094971	     -2.44502238	     -0.68943671	    -68.65130020	     -3.59420057	    -13.65832870	     -1.67768591	      2.15808506	      7.85581818	      1.98210981	    -13.98582560	      2.58129034	     -9.45469654	      2.69926431	     -8.25343465	     -0.17433846	      2.37540751
      1.19083333	      6.53371459	      2.94276878	      0.07085646	      0.21899523	      1.01316768	      0.29110742	     12.84160309	     -2.25610520	     -0.59689982	    -68.44757949	     -2.97328246	    -14.12338822	     -1.91401940	      1.52214239	      7.73466465	      2.12288148	    -13.60215818	      2.64368069	     -9.50310070	      2.64838579	     -8.38214776	     -0.04731980	      2.34050470
      1.19500000	      6.55518542	      2.78294497	      0.10368021	      0.22410646	      1.01398164	      0.29093939	     13.37770349	     -2.03329611	     -0.52881572	    -68.17940141	     -2.31055073	    -14.37465657	     -2.02324498	      1.00787572	      7.56868713	      2.22853471	    -13.29712537	      2.70773516	     -9.51444290	      2.62134754	     -8.42515593	      0.17381505	      2.31690658
      1.19916667	      6.65246824	      2.66138297	      0.11816090	      0.22922944	      1.01487980	      0.29082570	     13.81008752	     -1.84725058	     -0.44660849	    -67.84399227	     -1.68737275	    -14.81664766	     -2.25984532	      0.37305143	      7.44625832	      2.37905517	    -12.91314210	      2.76315202	     -9.59255422	      2.55862180	     -8.54535823	      0.29491646	      2.28075337
      1.20333333	      6.68755657	      2.48631339	      0.16062153	      0.23433964	      1.01566850	      0.29067891	     14.28416544	     -1.60973999	     -0.39937065	    -67.42759278	     -1.04744090	    -15.04104362	     -2.35246725	     -0.15078887	      7.25906465	      2.48632113	    -12.61588386	      2.82643003	     -9.60918497	      2.53130033	     -8.59383937	      0.51944087	      2.26055166
      1.20750000	      6.78357574	      2.36527987	      0.17563533	      0.23941711	      1.01647362	      0.29057529	     14.68817308	     -1.42575228	     -0.32065870	    -66.97756206	     -0.44325912	    -15.49886722	     -2.59184912	     -0.77528237	      7.13736110	      2.65394327	    -12.24239696	      2.88731152	     -9.70509793	      2.45878938	     -8.73623474	      0.65649772	      2.21868929
      1.21166667	      6.80940801	      2.19425282	      0.22209286	      0.24451218	      1.01718934	      0.29044505	     15.13290321	     -1.19253134	     -0.27668141	    -66.43353251	      0.16419244	    -15.72394814	     -2.69832372	     -1.28311882	      6.95309137	      2.77125923	    -11.95066752	      2.94537683	     -9.74274380	      2.42353842	     -8.77774066	      0.87553969	      2.19830452
      1.21583333	      6.91738431	      2.03901524	      0.24925140	      0.24962553	      1.01800625	      0.29033658	     15.46276078	     -0.97765555	     -0.23153873	    -65.81080633	      0.61798005	    -16.19500698	     -3.39594040	     -1.94459185	      6.79627203	      2.99532048	    -11.52541729	      2.89414017	    -10.00293057	      2.19093914	     -8.90934520	      1.06416395	      2.15062697
      1.22000000	      6.92936202	      1.91858985	      0.30647288	      0.25466686	      1.01857203	      0.29021245	     15.90350886	     -0.80643446	     -0.20032794	    -65.20198928	      1.31113525	    -16.44741906	     -7.89807058	     -2.44276739	      6.67285747	      3.21664882	    -11.22152697	      3.01078170	    -10.09250910	      0.71491618	     -8.94809601	      1.19502746	      2.12192869
      1.22416667	      6.98545896	      1.76741811	      0.33110475	      0.25973098	      1.01917602	      0.29015464	     16.26245479	     -0.59246939	     -0.14193295	    -64.48701440	      1.86395717	    -16.65418247	     -7.91492763	     -2.97015630	      6.50220816	      3.27237166	    -10.94944888	      3.13157472	    -10.07279670	      0.71967892	     -9.03294682	      1.36442661	      2.09041766
      1.22833333	      7.08608641	      1.61494515	      0.36507262	      0.26479960	      1.01981668	      0.29007440	     16.54610657	     -0.38564316	     -0.10819914	    -63.70337360	      2.31298020	    -17.04830842	     -7.96542559	     -3.57880597	      6.33395442	      3.41297815	    -10.60955798	      3.21340093	    -10.13398200	      0.71832241	     -9.17605141	      1.54429246	      2.04431772
      1.23250000	      7.13194509	      1.48402159	      0.40598425	      0.26985814	      1.02032196	      0.28999062	     16.87770318	     -0.20785352	     -0.08285945	    -62.88089182	      2.75219598	    -17.40147534	     -8.02768377	     -4.11719480	      6.19119837	      3.56893419	    -10.29022757	      3.28045765	    -10.24374900	      0.70956697	     -9.25078247	      1.70119887	      2.00505277
      1.23666667	      7.19761486	      1.34941819	      0.45097519	      0.27491179	      1.02082183	      0.28990456	     17.16061170	     -0.02965088	     -0.06606666	    -61.99182575	      3.15371352	    -17.74462726	     -8.09989871	     -4.67627469	      6.04215039	      3.72370012	     -9.96963147	      3.34661833	    -10.35559461	      0.69469829	     -9.34720052	      1.85947286	      1.96303277
      1.24083333	      7.20680341	      1.19635636	      0.51592518	      0.27995513	      1.02120788	      0.28981198	     17.48075585	      0.16672110	     -0.06575558	    -61.04059193	      3.54183176	    -18.00636360	     -8.14885987	     -5.14560483	      5.86834483	      3.86254801	     -9.70511080	      3.42322842	    -10.42421398	      0.68324789	     -9.37640712	      2.03959511	      1.93524246
